<svg width="59" height="12" viewBox="0 0 59 12" fill="none" xmlns="http://www.w3.org/2000/svg">
<path d="M5.5 0.941162L7.12288 4.20747L10.7308 4.74157L8.12587 7.29436L8.73282 10.8908L5.5 9.20216L2.26718 10.8908L2.87413 7.29436L0.269189 4.74157L3.87713 4.20747L5.5 0.941162Z" fill="#FDC14D"/>
<path d="M17.5 0.941162L19.1229 4.20747L22.7308 4.74157L20.1259 7.29436L20.7328 10.8908L17.5 9.20216L14.2672 10.8908L14.8741 7.29436L12.2692 4.74157L15.8771 4.20747L17.5 0.941162Z" fill="#FDC14D"/>
<path d="M29.5 0.941162L31.1229 4.20747L34.7308 4.74157L32.1259 7.29436L32.7328 10.8908L29.5 9.20216L26.2672 10.8908L26.8741 7.29436L24.2692 4.74157L27.8771 4.20747L29.5 0.941162Z" fill="#FDC14D"/>
<path d="M41.5 0.941162L43.1229 4.20747L46.7308 4.74157L44.1259 7.29436L44.7328 10.8908L41.5 9.20216L38.2672 10.8908L38.8741 7.29436L36.2692 4.74157L39.8771 4.20747L41.5 0.941162Z" fill="#FDC14D"/>
<path d="M53.5 0.941162L55.1229 4.20747L58.7308 4.74157L56.1259 7.29436L56.7328 10.8908L53.5 9.20216L50.2672 10.8908L50.8741 7.29436L48.2692 4.74157L51.8771 4.20747L53.5 0.941162Z" fill="#FDC14D"/>
</svg>
